<svg width="1360" height="221" viewBox="0 0 1360 221" fill="none" xmlns="http://www.w3.org/2000/svg">
<path fill-rule="evenodd" clip-rule="evenodd" d="M220.218 148.792L220.221 148.792C224.413 203.875 271.803 210.274 271.803 210.274V212.278H211.293V148.661C204.093 170.731 188.727 188.099 165.232 200.84C141.363 213.745 113.28 220.218 80.9815 220.218C58.1759 220.218 38.994 215.166 23.3964 205.142C7.7988 195.078 0 179.844 0 159.48C0 121.712 28.3593 102.808 85.0779 102.808H210.45C203.951 51.9761 171.771 26.5603 113.989 26.5603C63.769 26.5603 31.0771 43.2937 15.9127 76.721L12.2496 73.4454C19.8515 49.253 32.8101 30.9805 51.1255 18.5883C69.4015 6.19609 91.3011 0 116.825 0C149.91 0 175.434 9.70852 193.355 29.165C211.277 48.6216 220.218 76.9578 220.218 114.213V148.792ZM211.631 147.838V147.601C211.618 147.644 211.604 147.687 211.591 147.729L211.559 147.83L211.631 147.838ZM174.646 174.359C149.95 187.303 119.03 193.736 81.8481 193.736L81.8087 193.776C70.1498 193.776 59.5545 192.671 50.062 190.5C40.5695 188.33 32.0617 183.909 24.6174 177.24C17.1731 170.57 13.4313 162.085 13.4313 151.745C13.4313 124.001 37.1428 110.148 84.6446 110.148H211.277C211.513 112.871 211.671 116.936 211.671 122.383C211.671 144.128 199.342 161.454 174.646 174.359ZM444.015 0C461.682 0 481.636 3.00269 503.916 8.96855V75.1067H500.643C500.643 57.4066 493.9 44.013 480.453 34.8865C467.005 25.7599 450.482 21.2163 430.923 21.2163C388.807 21.2163 358.402 44.7637 339.632 91.8585V152.268C342.629 185.218 359.743 204.538 390.975 210.227V212.282H279.73V210.227C314.236 203.985 331.469 181.504 331.469 142.865V77.5562C331.469 38.9164 314.236 16.4753 279.73 10.1933V8.13886H339.632V73.0917H340.854C350.082 47.4898 362.937 28.9206 379.382 17.3445C395.826 5.76832 417.357 0 443.976 0H444.015ZM787.511 8.01354V142.664C787.511 181.282 804.729 203.75 839.206 209.989V212.043H779.355V147.166H776.912C755.753 195.853 720.055 220.217 669.818 220.217C636.681 220.217 611.582 210.582 594.481 191.233C577.381 171.924 568.831 143.493 568.831 105.941V77.3922C568.831 57.2538 563.748 41.6959 553.582 30.6791C543.416 19.6622 529.468 12.7915 511.855 10.0669V8.01354H577.42V97.7674C577.42 161.697 608.232 193.642 669.857 193.642C721.71 193.642 758.196 171.766 779.394 127.935V68.3496C777.779 51.2123 771.987 37.9052 762.097 28.3493C752.167 18.833 739.086 12.7125 722.813 9.98789V7.93457H787.55L787.511 8.01354ZM847.147 194.131C875.688 211.535 911.612 220.218 954.838 220.218C992.38 220.218 1022.5 214.337 1045.2 202.498C1067.9 190.698 1079.27 174.319 1079.27 153.363C1079.27 145.746 1077.65 139.234 1074.37 133.788C1071.1 128.342 1066.75 123.922 1061.31 120.528C1055.86 117.134 1048 114.292 1037.66 111.964C1027.32 109.675 1016.86 107.899 1006.24 106.675C995.617 105.452 981.761 104.189 964.628 102.808C926.534 100.085 900.084 96.0591 885.281 90.7708C870.477 85.4824 863.056 76.5632 863.056 64.0526C863.056 36.3083 894.321 22.4559 956.891 22.4559C1012.91 22.4559 1049.74 34.8086 1067.43 59.5535H1069.48V22.0218C1040.62 7.34059 1004.46 0 960.957 0C925.31 0 897.755 5.01212 878.333 15.0758C858.871 25.1396 849.16 40.097 849.16 59.9482C849.16 72.1825 853.581 81.9305 862.424 89.1132C871.267 96.3354 883.425 101.505 898.94 104.623C914.454 107.741 935.929 110.148 963.405 111.766C1001.74 114.213 1028.26 118.081 1042.95 123.369C1057.63 128.658 1064.98 138.129 1064.98 151.706C1064.98 182.449 1030.59 197.801 961.786 197.801C906.045 197.801 868.503 185.449 849.199 160.704H847.147V194.131ZM1359 210.274C1359 210.274 1311.63 203.878 1307.42 148.829V114.213C1307.42 76.9578 1298.48 48.6216 1280.56 29.165C1262.64 9.70852 1237.12 0 1204.03 0C1178.51 0 1156.61 6.19609 1138.33 18.5883C1120.02 30.9805 1107.06 49.253 1099.46 73.4454L1103.12 76.721C1118.28 43.2937 1150.98 26.5603 1201.19 26.5603C1258.98 26.5603 1291.16 51.9761 1297.66 102.808H1172.28C1115.57 102.808 1087.21 121.712 1087.21 159.48C1087.21 179.844 1095 195.078 1110.6 205.142C1126.2 215.166 1145.38 220.218 1168.19 220.218C1200.49 220.218 1228.57 213.745 1252.44 200.84C1275.93 188.102 1291.29 170.74 1298.49 148.678V212.278H1359V210.274ZM1298.84 147.601V147.838L1298.77 147.83L1298.84 147.601ZM1169.05 193.736C1206.24 193.736 1237.16 187.303 1261.85 174.359C1286.55 161.454 1298.88 144.128 1298.88 122.383C1298.88 116.936 1298.72 112.871 1298.48 110.148H1171.85C1124.35 110.148 1100.64 124.001 1100.64 151.745C1100.64 162.085 1104.38 170.57 1111.82 177.24C1119.27 183.909 1127.78 188.33 1137.27 190.5C1146.76 192.671 1157.36 193.776 1169.01 193.776L1169.05 193.736Z" fill="#FCFDFD"/>
</svg>
