<?xml version="1.0" standalone="no"?>
<!DOCTYPE svg PUBLIC "-//W3C//DTD SVG 20010904//EN"
 "http://www.w3.org/TR/2001/REC-SVG-20010904/DTD/svg10.dtd">
<svg version="1.0" xmlns="http://www.w3.org/2000/svg"
 width="512.000000pt" height="512.000000pt" viewBox="0 0 512.000000 512.000000"
 preserveAspectRatio="xMidYMid meet">

<g transform="translate(0.000000,512.000000) scale(0.100000,-0.100000)"
fill="#000000" stroke="none">
<path d="M395 4482 c-77 -27 -99 -99 -46 -153 l29 -29 412 0 c447 0 449 0 502
-57 26 -27 49 -122 323 -1349 163 -725 298 -1335 301 -1354 5 -35 5 -35 -58
-64 -221 -102 -320 -370 -216 -587 124 -260 449 -340 670 -164 153 122 209
314 143 495 -14 41 -29 83 -32 92 -5 17 29 18 612 18 490 0 616 -3 612 -13
-55 -129 -60 -148 -65 -218 -8 -133 39 -249 139 -344 102 -98 232 -139 369
-118 190 30 341 183 371 375 31 199 -92 407 -284 480 -51 20 -74 20 -1054 19
-957 -2 -1002 -1 -1007 16 -3 10 -32 140 -66 288 -33 149 -62 280 -65 292 l-5
23 1012 2 1013 3 47 28 c26 15 56 40 67 55 10 15 167 365 347 777 314 717 329
753 329 812 0 67 -15 97 -69 137 -27 21 -29 21 -1591 24 -1475 2 -1564 3
-1569 20 -3 9 -18 76 -35 149 -16 72 -37 146 -46 164 -31 58 -103 125 -168
155 l-62 29 -420 2 c-231 1 -429 -1 -440 -5z m4175 -769 c-198 -464 -603
-1379 -612 -1385 -7 -4 -465 -7 -1017 -5 l-1004 2 -158 704 c-87 387 -160 714
-163 727 l-6 24 1494 0 1495 0 -29 -67z m-2431 -2403 c167 -85 210 -275 90
-405 -124 -134 -340 -103 -415 60 -43 92 -28 202 40 282 64 76 201 106 285 63z
m1965 8 c25 -8 61 -32 93 -63 107 -104 108 -259 2 -363 -45 -44 -95 -65 -165
-70 -145 -10 -264 105 -264 252 0 73 23 127 75 178 74 73 161 95 259 66z"/>
</g>
</svg>
